<svg width="106mm" height="175mm" viewBox="0 0 106 175" xmlns="http://www.w3.org/2000/svg" version="1.1" preserveAspectRatio="xMidYMid meet"><g id="svgGroup" stroke-linecap="round" fill-rule="evenodd" font-size="9pt" stroke="#000" stroke-width="0.25mm" fill="none" style="stroke:#000;stroke-width:0.25mm;fill:none"><path d="M 0 89 L 0 98.25 L 3 98.25 L 3 105.75 L 0 105.75 L 0 113.25 L 3 113.25 L 3 120.75 L 0 120.75 L 0 128.25 L 3 128.25 L 3 135.75 L 0 135.75 L 0 143.25 L 3 143.25 L 3 150.75 L 0 150.75 L 0 158.25 L 3 158.25 L 3 165.75 L 0 165.75 L 0 175 L 11.25 175 L 11.25 172 L 18.75 172 L 18.75 175 L 26.25 175 L 30 175 L 30 165.75 L 27 165.75 L 27 158.25 L 30 158.25 L 30 150.75 L 27 150.75 L 27 143.25 L 30 143.25 L 30 135.75 L 27 135.75 L 27 128.25 L 30 128.25 L 30 120.75 L 27 120.75 L 27 113.25 L 30 113.25 L 30 105.75 L 27 105.75 L 27 98.25 L 30 98.25 L 30 89 L 18.75 89 L 18.75 92 L 11.25 92 L 11.25 89 L 3.75 89 L 0 89 Z" id="front_outsideCutPath" stroke="#FF0000" stroke-width="0.001" style="stroke:#FF0000;stroke-width:0.001" vector-effect="non-scaling-stroke"/><path d="M 36 89 L 36 98.25 L 33 98.25 L 33 105.75 L 36 105.75 L 36 113.25 L 33 113.25 L 33 120.75 L 36 120.75 L 36 128.25 L 33 128.25 L 33 135.75 L 36 135.75 L 36 143.25 L 33 143.25 L 33 150.75 L 36 150.75 L 36 158.25 L 33 158.25 L 33 165.75 L 36 165.75 L 36 175 L 41.75 175 L 41.75 172 L 49.25 172 L 49.25 175 L 56.75 175 L 56.75 172 L 64.25 172 L 64.25 175 L 70 175 L 70 165.75 L 73 165.75 L 73 158.25 L 70 158.25 L 70 150.75 L 73 150.75 L 73 143.25 L 70 143.25 L 70 135.75 L 73 135.75 L 73 128.25 L 70 128.25 L 70 120.75 L 73 120.75 L 73 113.25 L 70 113.25 L 70 105.75 L 73 105.75 L 73 98.25 L 70 98.25 L 70 89 L 64.25 89 L 64.25 92 L 56.75 92 L 56.75 89 L 49.25 89 L 49.25 92 L 41.75 92 L 41.75 89 L 36 89 Z" id="left_outsideCutPath" stroke="#FF0000" stroke-width="0.001" style="stroke:#FF0000;stroke-width:0.001" vector-effect="non-scaling-stroke"/><path d="M 79 138 L 79 143.75 L 76 143.75 L 76 151.25 L 79 151.25 L 79 158.75 L 76 158.75 L 76 166.25 L 79 166.25 L 79 172 L 87.25 172 L 87.25 175 L 94.75 175 L 94.75 172 L 102.25 172 L 103 172 L 103 166.25 L 106 166.25 L 106 158.75 L 103 158.75 L 103 151.25 L 106 151.25 L 106 143.75 L 103 143.75 L 103 138 L 94.75 138 L 94.75 135 L 87.25 135 L 87.25 138 L 79.75 138 L 79 138 Z" id="top_outsideCutPath" stroke="#FF0000" stroke-width="0.001" style="stroke:#FF0000;stroke-width:0.001" vector-effect="non-scaling-stroke"/><path d="M 0 0 L 0 9.25 L 3 9.25 L 3 16.75 L 0 16.75 L 0 24.25 L 3 24.25 L 3 31.75 L 0 31.75 L 0 39.25 L 3 39.25 L 3 46.75 L 0 46.75 L 0 54.25 L 3 54.25 L 3 61.75 L 0 61.75 L 0 69.25 L 3 69.25 L 3 76.75 L 0 76.75 L 0 86 L 11.25 86 L 11.25 83 L 18.75 83 L 18.75 86 L 26.25 86 L 30 86 L 30 76.75 L 27 76.75 L 27 69.25 L 30 69.25 L 30 61.75 L 27 61.75 L 27 54.25 L 30 54.25 L 30 46.75 L 27 46.75 L 27 39.25 L 30 39.25 L 30 31.75 L 27 31.75 L 27 24.25 L 30 24.25 L 30 16.75 L 27 16.75 L 27 9.25 L 30 9.25 L 30 0 L 18.75 0 L 18.75 3 L 11.25 3 L 11.25 0 L 3.75 0 L 0 0 Z" id="back_outsideCutPath" stroke="#FF0000" stroke-width="0.001" style="stroke:#FF0000;stroke-width:0.001" vector-effect="non-scaling-stroke"/><path d="M 36 0 L 36 9.25 L 33 9.25 L 33 16.75 L 36 16.75 L 36 24.25 L 33 24.25 L 33 31.75 L 36 31.75 L 36 39.25 L 33 39.25 L 33 46.75 L 36 46.75 L 36 54.25 L 33 54.25 L 33 61.75 L 36 61.75 L 36 69.25 L 33 69.25 L 33 76.75 L 36 76.75 L 36 86 L 41.75 86 L 41.75 83 L 49.25 83 L 49.25 86 L 56.75 86 L 56.75 83 L 64.25 83 L 64.25 86 L 70 86 L 70 76.75 L 73 76.75 L 73 69.25 L 70 69.25 L 70 61.75 L 73 61.75 L 73 54.25 L 70 54.25 L 70 46.75 L 73 46.75 L 73 39.25 L 70 39.25 L 70 31.75 L 73 31.75 L 73 24.25 L 70 24.25 L 70 16.75 L 73 16.75 L 73 9.25 L 70 9.25 L 70 0 L 64.25 0 L 64.25 3 L 56.75 3 L 56.75 0 L 49.25 0 L 49.25 3 L 41.75 3 L 41.75 0 L 36 0 Z" id="right_outsideCutPath" stroke="#FF0000" stroke-width="0.001" style="stroke:#FF0000;stroke-width:0.001" vector-effect="non-scaling-stroke"/><path d="M 79 95 L 79 100.75 L 76 100.75 L 76 108.25 L 79 108.25 L 79 115.75 L 76 115.75 L 76 123.25 L 79 123.25 L 79 129 L 87.25 129 L 87.25 132 L 94.75 132 L 94.75 129 L 102.25 129 L 103 129 L 103 123.25 L 106 123.25 L 106 115.75 L 103 115.75 L 103 108.25 L 106 108.25 L 106 100.75 L 103 100.75 L 103 95 L 94.75 95 L 94.75 92 L 87.25 92 L 87.25 95 L 79.75 95 L 79 95 Z" id="bottom_outsideCutPath" stroke="#FF0000" stroke-width="0.001" style="stroke:#FF0000;stroke-width:0.001" vector-effect="non-scaling-stroke"/></g></svg>