0
SECTION
2
HEADER
9
$INSUNITS
70
1
0
ENDSEC
0
SECTION
2
TABLES
0
TABLE
2
LAYER
0
ENDTAB
0
ENDSEC
0
SECTION
2
ENTITIES
0
LINE
8
front_outsideCutPath
10
0
20
89
11
0
21
79.75
0
LINE
8
front_outsideCutPath
10
0
20
79.75
11
3
21
79.75
0
LINE
8
front_outsideCutPath
10
3
20
79.75
11
3
21
72.25
0
LINE
8
front_outsideCutPath
10
3
20
72.25
11
0
21
72.25
0
LINE
8
front_outsideCutPath
10
0
20
72.25
11
0
21
64.75
0
LINE
8
front_outsideCutPath
10
0
20
64.75
11
3
21
64.75
0
LINE
8
front_outsideCutPath
10
3
20
64.75
11
3
21
57.25
0
LINE
8
front_outsideCutPath
10
3
20
57.25
11
0
21
57.25
0
LINE
8
front_outsideCutPath
10
0
20
57.25
11
0
21
49.75
0
LINE
8
front_outsideCutPath
10
0
20
49.75
11
3
21
49.75
0
LINE
8
front_outsideCutPath
10
3
20
49.75
11
3
21
42.25
0
LINE
8
front_outsideCutPath
10
3
20
42.25
11
0
21
42.25
0
LINE
8
front_outsideCutPath
10
0
20
42.25
11
0
21
34.75
0
LINE
8
front_outsideCutPath
10
0
20
34.75
11
3
21
34.75
0
LINE
8
front_outsideCutPath
10
3
20
34.75
11
3
21
27.25
0
LINE
8
front_outsideCutPath
10
3
20
27.25
11
0
21
27.25
0
LINE
8
front_outsideCutPath
10
0
20
27.25
11
0
21
19.75
0
LINE
8
front_outsideCutPath
10
0
20
19.75
11
3
21
19.75
0
LINE
8
front_outsideCutPath
10
3
20
19.75
11
3
21
12.25
0
LINE
8
front_outsideCutPath
10
3
20
12.25
11
0
21
12.25
0
LINE
8
front_outsideCutPath
10
0
20
12.25
11
0
21
3
0
LINE
8
front_outsideCutPath
10
0
20
3
11
11.25
21
3
0
LINE
8
front_outsideCutPath
10
11.25
20
3
11
11.25
21
6
0
LINE
8
front_outsideCutPath
10
11.25
20
6
11
18.75
21
6
0
LINE
8
front_outsideCutPath
10
18.75
20
6
11
18.75
21
3
0
LINE
8
front_outsideCutPath
10
18.75
20
3
11
26.25
21
3
0
LINE
8
front_outsideCutPath
10
26.25
20
3
11
30
21
3
0
LINE
8
front_outsideCutPath
10
30
20
3
11
30
21
12.25
0
LINE
8
front_outsideCutPath
10
30
20
12.25
11
27
21
12.25
0
LINE
8
front_outsideCutPath
10
27
20
12.25
11
27
21
19.75
0
LINE
8
front_outsideCutPath
10
27
20
19.75
11
30
21
19.75
0
LINE
8
front_outsideCutPath
10
30
20
19.75
11
30
21
27.25
0
LINE
8
front_outsideCutPath
10
30
20
27.25
11
27
21
27.25
0
LINE
8
front_outsideCutPath
10
27
20
27.25
11
27
21
34.75
0
LINE
8
front_outsideCutPath
10
27
20
34.75
11
30
21
34.75
0
LINE
8
front_outsideCutPath
10
30
20
34.75
11
30
21
42.25
0
LINE
8
front_outsideCutPath
10
30
20
42.25
11
27
21
42.25
0
LINE
8
front_outsideCutPath
10
27
20
42.25
11
27
21
49.75
0
LINE
8
front_outsideCutPath
10
27
20
49.75
11
30
21
49.75
0
LINE
8
front_outsideCutPath
10
30
20
49.75
11
30
21
57.25
0
LINE
8
front_outsideCutPath
10
30
20
57.25
11
27
21
57.25
0
LINE
8
front_outsideCutPath
10
27
20
57.25
11
27
21
64.75
0
LINE
8
front_outsideCutPath
10
27
20
64.75
11
30
21
64.75
0
LINE
8
front_outsideCutPath
10
30
20
64.75
11
30
21
72.25
0
LINE
8
front_outsideCutPath
10
30
20
72.25
11
27
21
72.25
0
LINE
8
front_outsideCutPath
10
27
20
72.25
11
27
21
79.75
0
LINE
8
front_outsideCutPath
10
27
20
79.75
11
30
21
79.75
0
LINE
8
front_outsideCutPath
10
30
20
79.75
11
30
21
89
0
LINE
8
front_outsideCutPath
10
30
20
89
11
18.75
21
89
0
LINE
8
front_outsideCutPath
10
18.75
20
89
11
18.75
21
86
0
LINE
8
front_outsideCutPath
10
18.75
20
86
11
11.25
21
86
0
LINE
8
front_outsideCutPath
10
11.25
20
86
11
11.25
21
89
0
LINE
8
front_outsideCutPath
10
11.25
20
89
11
3.75
21
89
0
LINE
8
front_outsideCutPath
10
3.75
20
89
11
0
21
89
0
LINE
8
left_outsideCutPath
10
36
20
89
11
36
21
79.75
0
LINE
8
left_outsideCutPath
10
36
20
79.75
11
33
21
79.75
0
LINE
8
left_outsideCutPath
10
33
20
79.75
11
33
21
72.25
0
LINE
8
left_outsideCutPath
10
33
20
72.25
11
36
21
72.25
0
LINE
8
left_outsideCutPath
10
36
20
72.25
11
36
21
64.75
0
LINE
8
left_outsideCutPath
10
36
20
64.75
11
33
21
64.75
0
LINE
8
left_outsideCutPath
10
33
20
64.75
11
33
21
57.25
0
LINE
8
left_outsideCutPath
10
33
20
57.25
11
36
21
57.25
0
LINE
8
left_outsideCutPath
10
36
20
57.25
11
36
21
49.75
0
LINE
8
left_outsideCutPath
10
36
20
49.75
11
33
21
49.75
0
LINE
8
left_outsideCutPath
10
33
20
49.75
11
33
21
42.25
0
LINE
8
left_outsideCutPath
10
33
20
42.25
11
36
21
42.25
0
LINE
8
left_outsideCutPath
10
36
20
42.25
11
36
21
34.75
0
LINE
8
left_outsideCutPath
10
36
20
34.75
11
33
21
34.75
0
LINE
8
left_outsideCutPath
10
33
20
34.75
11
33
21
27.25
0
LINE
8
left_outsideCutPath
10
33
20
27.25
11
36
21
27.25
0
LINE
8
left_outsideCutPath
10
36
20
27.25
11
36
21
19.75
0
LINE
8
left_outsideCutPath
10
36
20
19.75
11
33
21
19.75
0
LINE
8
left_outsideCutPath
10
33
20
19.75
11
33
21
12.25
0
LINE
8
left_outsideCutPath
10
33
20
12.25
11
36
21
12.25
0
LINE
8
left_outsideCutPath
10
36
20
12.25
11
36
21
3
0
LINE
8
left_outsideCutPath
10
36
20
3
11
41.75
21
3
0
LINE
8
left_outsideCutPath
10
41.75
20
3
11
41.75
21
6
0
LINE
8
left_outsideCutPath
10
41.75
20
6
11
49.25
21
6
0
LINE
8
left_outsideCutPath
10
49.25
20
6
11
49.25
21
3
0
LINE
8
left_outsideCutPath
10
49.25
20
3
11
56.75
21
3
0
LINE
8
left_outsideCutPath
10
56.75
20
3
11
56.75
21
6
0
LINE
8
left_outsideCutPath
10
56.75
20
6
11
64.25
21
6
0
LINE
8
left_outsideCutPath
10
64.25
20
6
11
64.25
21
3
0
LINE
8
left_outsideCutPath
10
64.25
20
3
11
70
21
3
0
LINE
8
left_outsideCutPath
10
70
20
3
11
70
21
12.25
0
LINE
8
left_outsideCutPath
10
70
20
12.25
11
73
21
12.25
0
LINE
8
left_outsideCutPath
10
73
20
12.25
11
73
21
19.75
0
LINE
8
left_outsideCutPath
10
73
20
19.75
11
70
21
19.75
0
LINE
8
left_outsideCutPath
10
70
20
19.75
11
70
21
27.25
0
LINE
8
left_outsideCutPath
10
70
20
27.25
11
73
21
27.25
0
LINE
8
left_outsideCutPath
10
73
20
27.25
11
73
21
34.75
0
LINE
8
left_outsideCutPath
10
73
20
34.75
11
70
21
34.75
0
LINE
8
left_outsideCutPath
10
70
20
34.75
11
70
21
42.25
0
LINE
8
left_outsideCutPath
10
70
20
42.25
11
73
21
42.25
0
LINE
8
left_outsideCutPath
10
73
20
42.25
11
73
21
49.75
0
LINE
8
left_outsideCutPath
10
73
20
49.75
11
70
21
49.75
0
LINE
8
left_outsideCutPath
10
70
20
49.75
11
70
21
57.25
0
LINE
8
left_outsideCutPath
10
70
20
57.25
11
73
21
57.25
0
LINE
8
left_outsideCutPath
10
73
20
57.25
11
73
21
64.75
0
LINE
8
left_outsideCutPath
10
73
20
64.75
11
70
21
64.75
0
LINE
8
left_outsideCutPath
10
70
20
64.75
11
70
21
72.25
0
LINE
8
left_outsideCutPath
10
70
20
72.25
11
73
21
72.25
0
LINE
8
left_outsideCutPath
10
73
20
72.25
11
73
21
79.75
0
LINE
8
left_outsideCutPath
10
73
20
79.75
11
70
21
79.75
0
LINE
8
left_outsideCutPath
10
70
20
79.75
11
70
21
89
0
LINE
8
left_outsideCutPath
10
70
20
89
11
64.25
21
89
0
LINE
8
left_outsideCutPath
10
64.25
20
89
11
64.25
21
86
0
LINE
8
left_outsideCutPath
10
64.25
20
86
11
56.75
21
86
0
LINE
8
left_outsideCutPath
10
56.75
20
86
11
56.75
21
89
0
LINE
8
left_outsideCutPath
10
56.75
20
89
11
49.25
21
89
0
LINE
8
left_outsideCutPath
10
49.25
20
89
11
49.25
21
86
0
LINE
8
left_outsideCutPath
10
49.25
20
86
11
41.75
21
86
0
LINE
8
left_outsideCutPath
10
41.75
20
86
11
41.75
21
89
0
LINE
8
left_outsideCutPath
10
41.75
20
89
11
36
21
89
0
LINE
8
top_outsideCutPath
10
79
20
40
11
79
21
34.25
0
LINE
8
top_outsideCutPath
10
79
20
34.25
11
76
21
34.25
0
LINE
8
top_outsideCutPath
10
76
20
34.25
11
76
21
26.75
0
LINE
8
top_outsideCutPath
10
76
20
26.75
11
79
21
26.75
0
LINE
8
top_outsideCutPath
10
79
20
26.75
11
79
21
19.25
0
LINE
8
top_outsideCutPath
10
79
20
19.25
11
76
21
19.25
0
LINE
8
top_outsideCutPath
10
76
20
19.25
11
76
21
11.75
0
LINE
8
top_outsideCutPath
10
76
20
11.75
11
79
21
11.75
0
LINE
8
top_outsideCutPath
10
79
20
11.75
11
79
21
6
0
LINE
8
top_outsideCutPath
10
79
20
6
11
87.25
21
6
0
LINE
8
top_outsideCutPath
10
87.25
20
6
11
87.25
21
3
0
LINE
8
top_outsideCutPath
10
87.25
20
3
11
94.75
21
3
0
LINE
8
top_outsideCutPath
10
94.75
20
3
11
94.75
21
6
0
LINE
8
top_outsideCutPath
10
94.75
20
6
11
102.25
21
6
0
LINE
8
top_outsideCutPath
10
102.25
20
6
11
103
21
6
0
LINE
8
top_outsideCutPath
10
103
20
6
11
103
21
11.75
0
LINE
8
top_outsideCutPath
10
103
20
11.75
11
106
21
11.75
0
LINE
8
top_outsideCutPath
10
106
20
11.75
11
106
21
19.25
0
LINE
8
top_outsideCutPath
10
106
20
19.25
11
103
21
19.25
0
LINE
8
top_outsideCutPath
10
103
20
19.25
11
103
21
26.75
0
LINE
8
top_outsideCutPath
10
103
20
26.75
11
106
21
26.75
0
LINE
8
top_outsideCutPath
10
106
20
26.75
11
106
21
34.25
0
LINE
8
top_outsideCutPath
10
106
20
34.25
11
103
21
34.25
0
LINE
8
top_outsideCutPath
10
103
20
34.25
11
103
21
40
0
LINE
8
top_outsideCutPath
10
103
20
40
11
94.75
21
40
0
LINE
8
top_outsideCutPath
10
94.75
20
40
11
94.75
21
43
0
LINE
8
top_outsideCutPath
10
94.75
20
43
11
87.25
21
43
0
LINE
8
top_outsideCutPath
10
87.25
20
43
11
87.25
21
40
0
LINE
8
top_outsideCutPath
10
87.25
20
40
11
79.75
21
40
0
LINE
8
top_outsideCutPath
10
79.75
20
40
11
79
21
40
0
LINE
8
back_outsideCutPath
10
0
20
178
11
0
21
168.75
0
LINE
8
back_outsideCutPath
10
0
20
168.75
11
3
21
168.75
0
LINE
8
back_outsideCutPath
10
3
20
168.75
11
3
21
161.25
0
LINE
8
back_outsideCutPath
10
3
20
161.25
11
0
21
161.25
0
LINE
8
back_outsideCutPath
10
0
20
161.25
11
0
21
153.75
0
LINE
8
back_outsideCutPath
10
0
20
153.75
11
3
21
153.75
0
LINE
8
back_outsideCutPath
10
3
20
153.75
11
3
21
146.25
0
LINE
8
back_outsideCutPath
10
3
20
146.25
11
0
21
146.25
0
LINE
8
back_outsideCutPath
10
0
20
146.25
11
0
21
138.75
0
LINE
8
back_outsideCutPath
10
0
20
138.75
11
3
21
138.75
0
LINE
8
back_outsideCutPath
10
3
20
138.75
11
3
21
131.25
0
LINE
8
back_outsideCutPath
10
3
20
131.25
11
0
21
131.25
0
LINE
8
back_outsideCutPath
10
0
20
131.25
11
0
21
123.75
0
LINE
8
back_outsideCutPath
10
0
20
123.75
11
3
21
123.75
0
LINE
8
back_outsideCutPath
10
3
20
123.75
11
3
21
116.25
0
LINE
8
back_outsideCutPath
10
3
20
116.25
11
0
21
116.25
0
LINE
8
back_outsideCutPath
10
0
20
116.25
11
0
21
108.75
0
LINE
8
back_outsideCutPath
10
0
20
108.75
11
3
21
108.75
0
LINE
8
back_outsideCutPath
10
3
20
108.75
11
3
21
101.25
0
LINE
8
back_outsideCutPath
10
3
20
101.25
11
0
21
101.25
0
LINE
8
back_outsideCutPath
10
0
20
101.25
11
0
21
92
0
LINE
8
back_outsideCutPath
10
0
20
92
11
11.25
21
92
0
LINE
8
back_outsideCutPath
10
11.25
20
92
11
11.25
21
95
0
LINE
8
back_outsideCutPath
10
11.25
20
95
11
18.75
21
95
0
LINE
8
back_outsideCutPath
10
18.75
20
95
11
18.75
21
92
0
LINE
8
back_outsideCutPath
10
18.75
20
92
11
26.25
21
92
0
LINE
8
back_outsideCutPath
10
26.25
20
92
11
30
21
92
0
LINE
8
back_outsideCutPath
10
30
20
92
11
30
21
101.25
0
LINE
8
back_outsideCutPath
10
30
20
101.25
11
27
21
101.25
0
LINE
8
back_outsideCutPath
10
27
20
101.25
11
27
21
108.75
0
LINE
8
back_outsideCutPath
10
27
20
108.75
11
30
21
108.75
0
LINE
8
back_outsideCutPath
10
30
20
108.75
11
30
21
116.25
0
LINE
8
back_outsideCutPath
10
30
20
116.25
11
27
21
116.25
0
LINE
8
back_outsideCutPath
10
27
20
116.25
11
27
21
123.75
0
LINE
8
back_outsideCutPath
10
27
20
123.75
11
30
21
123.75
0
LINE
8
back_outsideCutPath
10
30
20
123.75
11
30
21
131.25
0
LINE
8
back_outsideCutPath
10
30
20
131.25
11
27
21
131.25
0
LINE
8
back_outsideCutPath
10
27
20
131.25
11
27
21
138.75
0
LINE
8
back_outsideCutPath
10
27
20
138.75
11
30
21
138.75
0
LINE
8
back_outsideCutPath
10
30
20
138.75
11
30
21
146.25
0
LINE
8
back_outsideCutPath
10
30
20
146.25
11
27
21
146.25
0
LINE
8
back_outsideCutPath
10
27
20
146.25
11
27
21
153.75
0
LINE
8
back_outsideCutPath
10
27
20
153.75
11
30
21
153.75
0
LINE
8
back_outsideCutPath
10
30
20
153.75
11
30
21
161.25
0
LINE
8
back_outsideCutPath
10
30
20
161.25
11
27
21
161.25
0
LINE
8
back_outsideCutPath
10
27
20
161.25
11
27
21
168.75
0
LINE
8
back_outsideCutPath
10
27
20
168.75
11
30
21
168.75
0
LINE
8
back_outsideCutPath
10
30
20
168.75
11
30
21
178
0
LINE
8
back_outsideCutPath
10
30
20
178
11
18.75
21
178
0
LINE
8
back_outsideCutPath
10
18.75
20
178
11
18.75
21
175
0
LINE
8
back_outsideCutPath
10
18.75
20
175
11
11.25
21
175
0
LINE
8
back_outsideCutPath
10
11.25
20
175
11
11.25
21
178
0
LINE
8
back_outsideCutPath
10
11.25
20
178
11
3.75
21
178
0
LINE
8
back_outsideCutPath
10
3.75
20
178
11
0
21
178
0
LINE
8
right_outsideCutPath
10
36
20
178
11
36
21
168.75
0
LINE
8
right_outsideCutPath
10
36
20
168.75
11
33
21
168.75
0
LINE
8
right_outsideCutPath
10
33
20
168.75
11
33
21
161.25
0
LINE
8
right_outsideCutPath
10
33
20
161.25
11
36
21
161.25
0
LINE
8
right_outsideCutPath
10
36
20
161.25
11
36
21
153.75
0
LINE
8
right_outsideCutPath
10
36
20
153.75
11
33
21
153.75
0
LINE
8
right_outsideCutPath
10
33
20
153.75
11
33
21
146.25
0
LINE
8
right_outsideCutPath
10
33
20
146.25
11
36
21
146.25
0
LINE
8
right_outsideCutPath
10
36
20
146.25
11
36
21
138.75
0
LINE
8
right_outsideCutPath
10
36
20
138.75
11
33
21
138.75
0
LINE
8
right_outsideCutPath
10
33
20
138.75
11
33
21
131.25
0
LINE
8
right_outsideCutPath
10
33
20
131.25
11
36
21
131.25
0
LINE
8
right_outsideCutPath
10
36
20
131.25
11
36
21
123.75
0
LINE
8
right_outsideCutPath
10
36
20
123.75
11
33
21
123.75
0
LINE
8
right_outsideCutPath
10
33
20
123.75
11
33
21
116.25
0
LINE
8
right_outsideCutPath
10
33
20
116.25
11
36
21
116.25
0
LINE
8
right_outsideCutPath
10
36
20
116.25
11
36
21
108.75
0
LINE
8
right_outsideCutPath
10
36
20
108.75
11
33
21
108.75
0
LINE
8
right_outsideCutPath
10
33
20
108.75
11
33
21
101.25
0
LINE
8
right_outsideCutPath
10
33
20
101.25
11
36
21
101.25
0
LINE
8
right_outsideCutPath
10
36
20
101.25
11
36
21
92
0
LINE
8
right_outsideCutPath
10
36
20
92
11
41.75
21
92
0
LINE
8
right_outsideCutPath
10
41.75
20
92
11
41.75
21
95
0
LINE
8
right_outsideCutPath
10
41.75
20
95
11
49.25
21
95
0
LINE
8
right_outsideCutPath
10
49.25
20
95
11
49.25
21
92
0
LINE
8
right_outsideCutPath
10
49.25
20
92
11
56.75
21
92
0
LINE
8
right_outsideCutPath
10
56.75
20
92
11
56.75
21
95
0
LINE
8
right_outsideCutPath
10
56.75
20
95
11
64.25
21
95
0
LINE
8
right_outsideCutPath
10
64.25
20
95
11
64.25
21
92
0
LINE
8
right_outsideCutPath
10
64.25
20
92
11
70
21
92
0
LINE
8
right_outsideCutPath
10
70
20
92
11
70
21
101.25
0
LINE
8
right_outsideCutPath
10
70
20
101.25
11
73
21
101.25
0
LINE
8
right_outsideCutPath
10
73
20
101.25
11
73
21
108.75
0
LINE
8
right_outsideCutPath
10
73
20
108.75
11
70
21
108.75
0
LINE
8
right_outsideCutPath
10
70
20
108.75
11
70
21
116.25
0
LINE
8
right_outsideCutPath
10
70
20
116.25
11
73
21
116.25
0
LINE
8
right_outsideCutPath
10
73
20
116.25
11
73
21
123.75
0
LINE
8
right_outsideCutPath
10
73
20
123.75
11
70
21
123.75
0
LINE
8
right_outsideCutPath
10
70
20
123.75
11
70
21
131.25
0
LINE
8
right_outsideCutPath
10
70
20
131.25
11
73
21
131.25
0
LINE
8
right_outsideCutPath
10
73
20
131.25
11
73
21
138.75
0
LINE
8
right_outsideCutPath
10
73
20
138.75
11
70
21
138.75
0
LINE
8
right_outsideCutPath
10
70
20
138.75
11
70
21
146.25
0
LINE
8
right_outsideCutPath
10
70
20
146.25
11
73
21
146.25
0
LINE
8
right_outsideCutPath
10
73
20
146.25
11
73
21
153.75
0
LINE
8
right_outsideCutPath
10
73
20
153.75
11
70
21
153.75
0
LINE
8
right_outsideCutPath
10
70
20
153.75
11
70
21
161.25
0
LINE
8
right_outsideCutPath
10
70
20
161.25
11
73
21
161.25
0
LINE
8
right_outsideCutPath
10
73
20
161.25
11
73
21
168.75
0
LINE
8
right_outsideCutPath
10
73
20
168.75
11
70
21
168.75
0
LINE
8
right_outsideCutPath
10
70
20
168.75
11
70
21
178
0
LINE
8
right_outsideCutPath
10
70
20
178
11
64.25
21
178
0
LINE
8
right_outsideCutPath
10
64.25
20
178
11
64.25
21
175
0
LINE
8
right_outsideCutPath
10
64.25
20
175
11
56.75
21
175
0
LINE
8
right_outsideCutPath
10
56.75
20
175
11
56.75
21
178
0
LINE
8
right_outsideCutPath
10
56.75
20
178
11
49.25
21
178
0
LINE
8
right_outsideCutPath
10
49.25
20
178
11
49.25
21
175
0
LINE
8
right_outsideCutPath
10
49.25
20
175
11
41.75
21
175
0
LINE
8
right_outsideCutPath
10
41.75
20
175
11
41.75
21
178
0
LINE
8
right_outsideCutPath
10
41.75
20
178
11
36
21
178
0
LINE
8
bottom_outsideCutPath
10
79
20
83
11
79
21
77.25
0
LINE
8
bottom_outsideCutPath
10
79
20
77.25
11
76
21
77.25
0
LINE
8
bottom_outsideCutPath
10
76
20
77.25
11
76
21
69.75
0
LINE
8
bottom_outsideCutPath
10
76
20
69.75
11
79
21
69.75
0
LINE
8
bottom_outsideCutPath
10
79
20
69.75
11
79
21
62.25
0
LINE
8
bottom_outsideCutPath
10
79
20
62.25
11
76
21
62.25
0
LINE
8
bottom_outsideCutPath
10
76
20
62.25
11
76
21
54.75
0
LINE
8
bottom_outsideCutPath
10
76
20
54.75
11
79
21
54.75
0
LINE
8
bottom_outsideCutPath
10
79
20
54.75
11
79
21
49
0
LINE
8
bottom_outsideCutPath
10
79
20
49
11
87.25
21
49
0
LINE
8
bottom_outsideCutPath
10
87.25
20
49
11
87.25
21
46
0
LINE
8
bottom_outsideCutPath
10
87.25
20
46
11
94.75
21
46
0
LINE
8
bottom_outsideCutPath
10
94.75
20
46
11
94.75
21
49
0
LINE
8
bottom_outsideCutPath
10
94.75
20
49
11
102.25
21
49
0
LINE
8
bottom_outsideCutPath
10
102.25
20
49
11
103
21
49
0
LINE
8
bottom_outsideCutPath
10
103
20
49
11
103
21
54.75
0
LINE
8
bottom_outsideCutPath
10
103
20
54.75
11
106
21
54.75
0
LINE
8
bottom_outsideCutPath
10
106
20
54.75
11
106
21
62.25
0
LINE
8
bottom_outsideCutPath
10
106
20
62.25
11
103
21
62.25
0
LINE
8
bottom_outsideCutPath
10
103
20
62.25
11
103
21
69.75
0
LINE
8
bottom_outsideCutPath
10
103
20
69.75
11
106
21
69.75
0
LINE
8
bottom_outsideCutPath
10
106
20
69.75
11
106
21
77.25
0
LINE
8
bottom_outsideCutPath
10
106
20
77.25
11
103
21
77.25
0
LINE
8
bottom_outsideCutPath
10
103
20
77.25
11
103
21
83
0
LINE
8
bottom_outsideCutPath
10
103
20
83
11
94.75
21
83
0
LINE
8
bottom_outsideCutPath
10
94.75
20
83
11
94.75
21
86
0
LINE
8
bottom_outsideCutPath
10
94.75
20
86
11
87.25
21
86
0
LINE
8
bottom_outsideCutPath
10
87.25
20
86
11
87.25
21
83
0
LINE
8
bottom_outsideCutPath
10
87.25
20
83
11
79.75
21
83
0
LINE
8
bottom_outsideCutPath
10
79.75
20
83
11
79
21
83
0
ENDSEC
0
EOF